<svg xmlns="http://www.w3.org/2000/svg" version="1.0" width="500.000000pt" height="500.000000pt" viewBox="0 0 500.000000 500.000000" preserveAspectRatio="xMidYMid meet">

<g transform="translate(0.000000,500.000000) scale(0.100000,-0.100000)" fill="#dda500" stroke="none">
<path d="M2817 4035 c-18 -148 -68 -219 -174 -248 -33 -9 -72 -17 -88 -17 -43 0 -22 -12 37 -21 80 -13 155 -54 177 -98 22 -43 51 -146 52 -187 0 -16 7 7 15 51 26 144 67 194 179 221 39 9 79 20 90 25 17 6 16 8 -9 8 -54 2 -144 33 -180 63 -44 36 -63 78 -80 178 l-12 75 -7 -50z" fill="#dda500"/>
<path d="M3691 3693 c-33 -65 -54 -78 -130 -78 l-66 0 35 -18 c63 -33 80 -60 80 -130 l0 -61 29 45 c35 55 74 74 139 66 l47 -6 -35 18 c-68 37 -91 82 -80 158 4 24 5 43 4 43 -2 0 -12 -17 -23 -37z" fill="#dda500"/>
<path d="M3121 3415 c12 -44 6 -65 -28 -100 l-27 -26 50 6 c48 7 53 5 89 -26 29 -26 37 -29 31 -14 -22 56 -19 81 14 118 33 38 30 44 -14 27 -31 -11 -71 1 -96 30 -25 29 -30 25 -19 -15z" fill="#dda500"/>
<path d="M3837 3186 c-63 -120 -120 -152 -250 -141 l-72 6 59 -33 c122 -70 144 -115 133 -267 l-6 -76 32 65 c63 129 138 172 268 151 89 -15 92 -13 31 14 -68 31 -128 79 -149 119 -13 23 -17 53 -16 124 1 50 1 92 0 92 -1 0 -15 -24 -30 -54z" fill="#dda500"/>
<path d="M2377 3185 c-24 -30 -34 -35 -70 -35 -36 -1 -39 -2 -22 -12 47 -26 65 -51 65 -92 l0 -41 20 32 c22 37 48 53 86 53 l28 0 -33 28 c-23 19 -35 40 -40 65 l-6 37 -28 -35z" fill="#dda500"/>
<path d="M1878 2014 c-955 -957 -983 -987 -982 -1022 2 -49 49 -92 101 -92 36 0 71 34 1015 978 538 537 981 987 984 998 12 48 -58 124 -113 124 -17 0 -283 -261 -1005 -986z m1066 925 c14 -17 26 -38 26 -47 0 -18 -358 -382 -375 -382 -6 0 -31 20 -55 45 l-44 45 184 185 c204 205 216 211 264 154z" fill="#dda500"/>
<path d="M2201 2759 c-189 -17 -311 -83 -311 -169 0 -39 42 -105 103 -162 34 -32 66 -58 72 -58 11 0 395 381 395 393 0 9 -135 7 -259 -4z" fill="#dda500"/>
<path d="M2916 2631 c-31 -31 -56 -60 -56 -64 0 -4 12 -7 26 -7 39 0 246 -57 353 -97 270 -101 417 -234 346 -313 -38 -42 -100 -55 -255 -55 -143 0 -204 8 -370 47 -100 23 -290 87 -350 118 l-43 22 -58 -58 c-32 -32 -56 -60 -54 -63 3 -2 29 -13 57 -23 162 -59 269 -93 408 -128 142 -35 200 -46 435 -81 131 -20 405 -17 500 5 148 34 205 78 205 156 0 79 -69 159 -230 265 -176 116 -549 262 -836 328 -17 3 -36 -9 -78 -52z" fill="#dda500"/>
<path d="M2298 2013 l-127 -128 -64 -155 c-35 -85 -75 -177 -88 -205 -46 -96 -25 -171 72 -261 199 -182 571 -317 914 -331 268 -11 408 39 434 156 6 25 22 177 36 336 14 160 28 311 31 336 l5 46 -78 6 c-245 18 -625 133 -903 274 -58 29 -105 53 -105 53 0 0 -57 -57 -127 -127z" fill="#dda500"/>
</g>
</svg>